          <svg
            xmlns="http://www.w3.org/2000/svg"
            width="40"
            height="40"
            fill="#0A66C2"
            viewBox="0 0 16 16"
            className="icon"
          >
            <path d="M1.146 0C.513 0 0 .525 0 1.188v13.625C0 15.477.513 16 1.146 16h13.708c.633 0 1.146-.525 1.146-1.188V1.188C16 .525 15.487 0 14.854 0H1.146zM4.943 13.146H2.797V6.798h2.146v6.348zm-1.073-7.31c-.726 0-1.246-.533-1.246-1.198C2.624 4.063 3.143 3.53 3.87 3.53c.726 0 1.246.533 1.246 1.198-.001.665-.52 1.108-1.246 1.108zM13.146 13.146H11v-3.613c0-.903-.754-1.563-1.573-1.563s-1.573.66-1.573 1.563v3.613H5.858V6.798h2.146v1.088c.403-.724 1.283-1.088 2.063-1.088 1.437 0 2.573 1.185 2.573 2.638v4.71z" />
          </svg>