<svg width="51" height="41" viewBox="0 0 51 41" fill="none" xmlns="http://www.w3.org/2000/svg">
<path d="M45.9 0H5.1C2.28735 0 0 2.29856 0 5.125V35.875C0 38.7014 2.28735 41 5.1 41H45.9C48.7127 41 51 38.7014 51 35.875V5.125C51 2.29856 48.7127 0 45.9 0ZM11.475 7.6875C12.4895 7.6875 13.4624 8.09246 14.1797 8.81331C14.897 9.53415 15.3 10.5118 15.3 11.5312C15.3 12.5507 14.897 13.5283 14.1797 14.2492C13.4624 14.97 12.4895 15.375 11.475 15.375C10.4605 15.375 9.48764 14.97 8.77032 14.2492C8.05299 13.5283 7.65 12.5507 7.65 11.5312C7.65 10.5118 8.05299 9.53415 8.77032 8.81331C9.48764 8.09246 10.4605 7.6875 11.475 7.6875ZM25.5 33.3125H7.65L17.85 20.5L21.675 25.625L29.325 15.375L43.35 33.3125H25.5Z" fill="#BBBBBB"/>
</svg>
