          <svg
            xmlns="http://www.w3.org/2000/svg"
            width="40"
            height="40"
            fill="#FF0000"
            viewBox="0 0 16 16"
            className="icon"
          >
            <path d="M8.051 1.999h-.002c-2.136 0-3.852.007-5.095.062-1.242.056-2.23.257-3.007.597-.776.34-1.373.79-1.8 1.337-.425.546-.73 1.228-.867 1.983-.135.755-.198 1.715-.198 2.848v.006c0 1.13.064 2.092.198 2.844.137.755.442 1.437.867 1.983.427.548 1.024.997 1.8 1.337.776.34 1.765.54 3.007.596 1.243.056 2.959.063 5.095.063h.002c2.137 0 3.853-.007 5.096-.063 1.242-.056 2.231-.256 3.007-.596.776-.34 1.373-.79 1.8-1.337.425-.546.73-1.228.867-1.983.134-.752.198-1.714.198-2.844v-.006c0-1.133-.064-2.093-.198-2.848-.137-.755-.442-1.437-.867-1.983-.427-.547-1.024-.997-1.8-1.337-.776-.34-1.765-.54-3.007-.596-1.243-.055-2.959-.062-5.096-.062zM6.99 10.486V5.514l4.276 2.486L6.99 10.486z" />
          </svg>